<svg height="100%" width="100%" id="svg" viewBox="0 0 1440 600" xmlns="http://www.w3.org/2000/svg" class="transition duration-300 ease-in-out delay-150"><defs><linearGradient id="gradient"><stop offset="5%" stop-color="#9900ef66"></stop><stop offset="95%" stop-color="#fcb90066"></stop></linearGradient></defs><path d="M 0,600 C 0,600 0,150 0,150 C 64.9729381443299,168.36156111929307 129.9458762886598,186.72312223858617 196,187 C 262.0541237113402,187.27687776141383 329.1894329896908,169.46907216494844 377,150 C 424.8105670103092,130.53092783505156 453.2963917525774,109.40058910162001 512,111 C 570.7036082474226,112.59941089837999 659.625,136.92857142857144 726,159 C 792.375,181.07142857142856 836.2036082474226,200.88512518409425 892,190 C 947.7963917525774,179.11487481590575 1015.5605670103091,137.53092783505156 1081,120 C 1146.4394329896909,102.46907216494846 1209.5541237113403,108.99116347569957 1269,118 C 1328.4458762886597,127.00883652430043 1384.2229381443299,138.5044182621502 1440,150 C 1440,150 1440,600 1440,600 Z" stroke="none" stroke-width="0" fill="url(#gradient)" class="transition-all duration-300 ease-in-out delay-150"></path><defs><linearGradient id="gradient"><stop offset="5%" stop-color="#9900ef88"></stop><stop offset="95%" stop-color="#fcb90088"></stop></linearGradient></defs><path d="M 0,600 C 0,600 0,300 0,300 C 66.72680412371136,308.97533136966126 133.45360824742272,317.9506627393225 195,317 C 256.5463917525773,316.0493372606775 312.9123711340206,305.17268041237116 366,304 C 419.0876288659794,302.82731958762884 468.8969072164949,311.35861561119293 523,312 C 577.1030927835051,312.64138438880707 635.4999999999999,305.39285714285717 692,302 C 748.5000000000001,298.60714285714283 803.1030927835053,299.0699558173785 875,313 C 946.8969072164947,326.9300441826215 1036.0876288659795,354.3273195876289 1101,346 C 1165.9123711340205,337.6726804123711 1206.5463917525774,293.62076583210603 1259,280 C 1311.4536082474226,266.37923416789397 1375.7268041237112,283.189617083947 1440,300 C 1440,300 1440,600 1440,600 Z" stroke="none" stroke-width="0" fill="url(#gradient)" class="transition-all duration-300 ease-in-out delay-150"></path><defs><linearGradient id="gradient"><stop offset="5%" stop-color="#9900efff"></stop><stop offset="95%" stop-color="#fcb900ff"></stop></linearGradient></defs><path d="M 0,600 C 0,600 0,450 0,450 C 73.22625184094257,442.2247790868925 146.45250368188513,434.449558173785 200,425 C 253.54749631811487,415.550441826215 287.416237113402,404.42654639175254 348,421 C 408.583762886598,437.57345360824746 495.8825478645066,481.8442562592047 567,498 C 638.1174521354934,514.1557437407953 693.0535714285714,502.1964285714285 738,490 C 782.9464285714286,477.8035714285715 817.9031664212076,465.3700294550811 878,456 C 938.0968335787924,446.6299705449189 1023.3337628865979,440.3234536082474 1082,446 C 1140.666237113402,451.6765463917526 1172.7617820324006,469.3361561119293 1228,472 C 1283.2382179675994,474.6638438880707 1361.6191089837998,462.33192194403534 1440,450 C 1440,450 1440,600 1440,600 Z" stroke="none" stroke-width="0" fill="url(#gradient)" class="transition-all duration-300 ease-in-out delay-150"></path></svg>